#!OML:ASF F:\VICON\USERDATA\INSTALL\rory3\rory3.ASF
:FULLY-SPECIFIED
:DEGREES
109
root 4.13849 18.1415 -0.716059 -3.44142 -1.40393 -4.54712
lowerback 11.487 -0.517615 2.10238
upperback 0.338899 -0.243233 2.67675
thorax -6.09416 -0.14123 1.66813
lowerneck -15.9562 -3.31014 -1.99237
upperneck 23.3981 -4.09147 -0.153725
head 10.1331 -2.08722 -0.266609
rclavicle 1.29831e-014 -8.34896e-015
rhumerus -32.1965 -20.2491 -76.7823
rradius 22.8473
rwrist 7.02033
rhand -15.106 22.3849
rfingers 7.12502
rthumb 11.0625 -7.30352
lclavicle 1.29831e-014 -8.34896e-015
lhumerus -33.659 -1.89131 83.5325
lradius 30.2617
lwrist 4.25699
lhand -30.0397 14.7125
lfingers 7.12502
lthumb -3.3558 44.6659
rfemur -15.7341 8.76689 30.0368
rtibia 32.6382
rfoot -9.54214 -6.00563
rtoes 9.61859
lfemur -12.5564 6.03579 -13.3665
ltibia 70.0364
lfoot 5.37768 -13.9389
ltoes -8.08977
110
root 4.1323 18.1507 -0.541991 -3.49759 -1.473 -4.70075
lowerback 11.5275 -0.444673 2.38034
upperback 0.362404 -0.115023 2.57619
thorax -6.09455 -0.0877287 1.38431
lowerneck -15.9645 -3.28262 -1.7659
upperneck 23.4492 -4.1013 -0.204069
head 10.1461 -2.07726 -0.323907
rclavicle 1.11941e-014 6.16232e-015
rhumerus -31.7679 -20.3381 -77.008
rradius 22.8285
rwrist 6.97904
rhand -15.2886 22.1767
rfingers 7.12502
rthumb 10.8864 -7.52112
lclavicle 1.11941e-014 6.16232e-015
lhumerus -33.6441 -1.61416 83.4266
lradius 29.8161
lwrist 4.34483
lhand -28.8898 16.5283
lfingers 7.12502
lthumb -2.24525 46.4962
rfemur -15.0617 8.918 30.363
rtibia 32.7096
rfoot -10.0979 -6.27926
rtoes 10.0191
lfemur -13.9872 6.26353 -13.2533
ltibia 70.4472
lfoot 4.6331 -12.9265
ltoes -1.79247
111
root 4.13012 18.1308 -0.368449 -3.53726 -1.60896 -4.56331
lowerback 11.5346 -0.318844 2.29905
upperback 0.371979 0.0348846 2.47175
thorax -6.08901 -0.0133412 1.29514
lowerneck -16.0979 -3.31928 -1.64995
upperneck 23.6259 -4.15443 -0.316248
head 10.2301 -2.10347 -0.394545
rclavicle -4.16205e-016 9.54166e-015
rhumerus -31.3521 -20.2343 -77.1467
rradius 22.9013
rwrist 6.80212
rhand -15.4052 22.1618
rfingers 7.12502
rthumb 10.7739 -7.5419
lclavicle -4.16205e-016 9.54166e-015
lhumerus -33.823 -1.42482 83.5377
lradius 29.646
lwrist 4.74651
lhand -25.9639 24.639
lfingers 7.12502
lthumb 0.580634 54.6179
rfemur -14.4673 9.04211 30.3589
rtibia 32.9454
rfoot -10.7284 -6.47857
rtoes 10.6567
lfemur -14.7986 6.51264 -13.4788
ltibia 70.8079
lfoot 2.38203 -12.0178
ltoes 2.04576
112
root 4.12773 18.0953 -0.19465 -3.46151 -1.74156 -4.61587
lowerback 11.29 -0.229944 2.28575
upperback 0.386202 0.144214 2.52849
thorax -5.93741 0.0421644 1.34207
lowerneck -15.9631 -3.36333 -1.77856
upperneck 23.5666 -4.1773 -0.337589
head 10.186 -2.12873 -0.380352
rclavicle -1.29583e-014 1.78906e-014
rhumerus -30.9961 -19.3178 -77.4414
rradius 23.3454
rwrist 5.97009
rhand -15.2796 21.3882
rfingers 7.12502
rthumb 10.8951 -8.30919
lclavicle -1.29583e-014 1.78906e-014
lhumerus -34.0611 -1.17766 83.7946
lradius 29.7072
lwrist 5.15863
lhand -23.8012 30.3153
lfingers 7.12502
lthumb 2.66934 60.2783
rfemur -13.9821 9.28789 30.5268
rtibia 33.2317
rfoot -11.859 -6.83675
rtoes 11.0199
lfemur -16.0826 6.67916 -13.4767
ltibia 71.1077
lfoot 1.27958 -11.6211
ltoes -0.138585
113
root 4.12659 18.1208 -0.0144833 -3.46119 -1.88729 -4.71579
lowerback 11.1775 -0.173383 2.41443
upperback 0.361574 0.231558 2.52001
thorax -5.90036 0.0814579 1.24594
lowerneck -15.5584 -3.34085 -1.83535
upperneck 23.4775 -4.15545 -0.270857
head 10.0796 -2.11795 -0.335488
rclavicle -4.59068e-015 -2.98177e-015
rhumerus -30.697 -18.5256 -77.786
rradius 23.7811
rwrist 5.88505
rhand -15.7469 21.5123
rfingers 7.12502
rthumb 10.4443 -8.20824
lclavicle -4.59068e-015 -2.98177e-015
lhumerus -34.319 -0.930863 83.8794
lradius 29.4443
lwrist 5.3525
lhand -24.5075 29.4061
lfingers 7.12502
lthumb 1.98721 59.3766
rfemur -13.2282 9.36251 30.7457
rtibia 33.2499
rfoot -12.714 -6.83526
rtoes 10.6912
lfemur -17.1564 6.63353 -13.5012
ltibia 70.8725
lfoot 0.58886 -11.2411
ltoes -5.6274
114
root 4.12791 18.106 0.157883 -3.52122 -2.00061 -4.80164
lowerback 11.2607 -0.052579 2.72125
upperback 0.332061 0.426762 2.36351
thorax -5.97565 0.165887 0.877662
lowerneck -15.5976 -3.43755 -1.7076
upperneck 23.6386 -4.33788 -0.228042
head 10.1441 -2.18479 -0.36877
rclavicle 8.48562e-015 2.8625e-014
rhumerus -30.3637 -18.4701 -78.0203
rradius 23.9202
rwrist 6.68156
rhand -17.0349 22.9595
rfingers 7.12502
rthumb 9.20164 -6.81977
lclavicle 8.48562e-015 2.8625e-014
lhumerus -34.4171 -1.07725 83.8688
lradius 29.142
lwrist 5.22731
lhand -25.854 26.3409
lfingers 7.12502
lthumb 0.686709 56.3195
rfemur -12.5281 9.22056 30.9678
rtibia 33.2442
rfoot -13.129 -6.78959
rtoes 10.0599
lfemur -18.2455 6.75108 -13.514
ltibia 70.6341
lfoot -0.972118 -10.7702
ltoes -6.35288
115
root 4.12083 18.1334 0.328573 -3.53027 -2.08218 -4.92788
lowerback 11.3821 0.0416214 2.89115
upperback 0.297588 0.577526 2.30855
thorax -6.07753 0.233174 0.700049
lowerneck -15.7304 -3.4708 -1.68959
upperneck 23.8132 -4.41086 -0.144237
head 10.2347 -2.20529 -0.357065
rclavicle 1.43001e-014 -1.86858e-014
rhumerus -30.1002 -18.3146 -78.2177
rradius 24.1961
rwrist 6.7105
rhand -17.3567 22.7799
rfingers 7.12502
rthumb 8.89118 -7.01273
lclavicle 1.43001e-014 -1.86858e-014
lhumerus -34.5185 -1.15884 83.9215
lradius 29.1396
lwrist 4.8729
lhand -26.3513 23.1914
lfingers 7.12502
lthumb 0.206483 53.171
rfemur -11.7537 9.2687 31.2383
rtibia 33.0275
rfoot -13.4916 -6.93851
rtoes 10.493
lfemur -19.2034 6.62516 -13.4955
ltibia 70.0309
lfoot -2.57315 -9.93775
ltoes -8.00667
116
root 4.11789 18.118 0.499199 -3.51398 -2.23128 -5.17866
lowerback 11.5152 0.122506 3.13909
upperback 0.224076 0.729421 2.34708
thorax -6.22689 0.299026 0.576312
lowerneck -15.6118 -3.46391 -1.70626
upperneck 23.7386 -4.41054 -0.0943751
head 10.1867 -2.20153 -0.33332
rclavicle 5.36097e-015 6.95746e-015
rhumerus -29.9628 -17.5155 -78.5753
rradius 24.726
rwrist 5.59848
rhand -16.7576 20.405
rfingers 7.12502
rthumb 9.46924 -9.36225
lclavicle 5.36097e-015 6.95746e-015
lhumerus -34.7178 -1.06181 84.0551
lradius 29.0163
lwrist 5.12276
lhand -25.7124 24.8383
lfingers 7.12502
lthumb 0.823519 54.8164
rfemur -11.0977 9.39653 31.6227
rtibia 33.009
rfoot -14.0301 -6.9588
rtoes 12.9204
lfemur -20.3248 6.69067 -13.2962
ltibia 69.487
lfoot -3.84679 -9.24512
ltoes -9.09607
117
root 4.11901 18.0898 0.666274 -3.50931 -2.35107 -5.4058
lowerback 11.5628 0.171605 3.42177
upperback 0.234277 0.835969 2.37449
thorax -6.23839 0.343058 0.428263
lowerneck -15.4877 -3.50247 -1.73039
upperneck 23.4866 -4.46082 -0.0781587
head 10.0738 -2.22646 -0.324521
rclavicle -9.13167e-015 -1.11319e-014
rhumerus -29.5923 -16.6272 -78.9484
rradius 25.1223
rwrist 4.4688
rhand -16.6038 18.9032
rfingers 7.12502
rthumb 9.61766 -10.8573
lclavicle -9.13167e-015 -1.11319e-014
lhumerus -34.8684 -1.15924 84.3011
lradius 28.8644
lwrist 6.24389
lhand -24.9366 28.2751
lfingers 7.12502
lthumb 1.5728 58.2491
rfemur -10.5128 9.40135 31.9673
rtibia 33.0611
rfoot -14.6001 -6.93835
rtoes 14.0875
lfemur -21.4432 6.65452 -13.1414
ltibia 68.7941
lfoot -4.76246 -8.69492
ltoes -9.65267
